<mxfile host="app.diagrams.net" modified="2021-08-15T04:40:19.296Z" agent="5.0 (Windows NT 10.0; Win64; x64) AppleWebKit/537.36 (KHTML, like Gecko) Chrome/92.0.4515.131 Safari/537.36" etag="PdINiGihOKN6QpRxDM7J" version="14.9.5" type="github">
  <diagram id="eG_54rcrBvrI69rx5YUa" name="Page-1">
    <mxGraphModel dx="2062" dy="1066" grid="1" gridSize="10" guides="1" tooltips="1" connect="1" arrows="1" fold="1" page="1" pageScale="1" pageWidth="1500" pageHeight="2000" math="0" shadow="0">
      <root>
        <mxCell id="0" />
        <mxCell id="1" parent="0" />
        <mxCell id="gHO-nf5wOFHp8qM-bktQ-3" style="edgeStyle=orthogonalEdgeStyle;rounded=0;orthogonalLoop=1;jettySize=auto;html=1;exitX=0.5;exitY=1;exitDx=0;exitDy=0;" parent="1" source="gHO-nf5wOFHp8qM-bktQ-1" target="gHO-nf5wOFHp8qM-bktQ-2" edge="1">
          <mxGeometry relative="1" as="geometry" />
        </mxCell>
        <mxCell id="gHO-nf5wOFHp8qM-bktQ-7" style="edgeStyle=orthogonalEdgeStyle;rounded=0;orthogonalLoop=1;jettySize=auto;html=1;exitX=1;exitY=0.5;exitDx=0;exitDy=0;entryX=0;entryY=0.5;entryDx=0;entryDy=0;" parent="1" source="gHO-nf5wOFHp8qM-bktQ-1" target="gHO-nf5wOFHp8qM-bktQ-6" edge="1">
          <mxGeometry relative="1" as="geometry" />
        </mxCell>
        <mxCell id="gHO-nf5wOFHp8qM-bktQ-1" value="registerMicroApps" style="rounded=0;whiteSpace=wrap;html=1;" parent="1" vertex="1">
          <mxGeometry x="155" y="80" width="120" height="60" as="geometry" />
        </mxCell>
        <mxCell id="gHO-nf5wOFHp8qM-bktQ-5" style="edgeStyle=orthogonalEdgeStyle;rounded=0;orthogonalLoop=1;jettySize=auto;html=1;exitX=1;exitY=0.5;exitDx=0;exitDy=0;entryX=0;entryY=0.5;entryDx=0;entryDy=0;" parent="1" source="gHO-nf5wOFHp8qM-bktQ-2" target="gHO-nf5wOFHp8qM-bktQ-4" edge="1">
          <mxGeometry relative="1" as="geometry" />
        </mxCell>
        <mxCell id="gHO-nf5wOFHp8qM-bktQ-11" style="edgeStyle=orthogonalEdgeStyle;rounded=0;orthogonalLoop=1;jettySize=auto;html=1;exitX=0.5;exitY=1;exitDx=0;exitDy=0;" parent="1" source="gHO-nf5wOFHp8qM-bktQ-2" target="gHO-nf5wOFHp8qM-bktQ-10" edge="1">
          <mxGeometry relative="1" as="geometry" />
        </mxCell>
        <mxCell id="gHO-nf5wOFHp8qM-bktQ-2" value="start" style="rounded=0;whiteSpace=wrap;html=1;" parent="1" vertex="1">
          <mxGeometry x="155" y="210" width="120" height="60" as="geometry" />
        </mxCell>
        <mxCell id="gHO-nf5wOFHp8qM-bktQ-9" style="edgeStyle=orthogonalEdgeStyle;rounded=0;orthogonalLoop=1;jettySize=auto;html=1;exitX=1;exitY=0.5;exitDx=0;exitDy=0;" parent="1" source="gHO-nf5wOFHp8qM-bktQ-4" target="gHO-nf5wOFHp8qM-bktQ-8" edge="1">
          <mxGeometry relative="1" as="geometry" />
        </mxCell>
        <mxCell id="gHO-nf5wOFHp8qM-bktQ-4" value="doPrefetchStrategy&lt;br&gt;注册预加载策略" style="rounded=0;whiteSpace=wrap;html=1;" parent="1" vertex="1">
          <mxGeometry x="365" y="210" width="120" height="60" as="geometry" />
        </mxCell>
        <mxCell id="pf8wN_jui3YV7THaJHcF-3" style="edgeStyle=orthogonalEdgeStyle;rounded=0;orthogonalLoop=1;jettySize=auto;html=1;exitX=1;exitY=0.5;exitDx=0;exitDy=0;entryX=0;entryY=0.5;entryDx=0;entryDy=0;" edge="1" parent="1" source="gHO-nf5wOFHp8qM-bktQ-6" target="pf8wN_jui3YV7THaJHcF-2">
          <mxGeometry relative="1" as="geometry" />
        </mxCell>
        <mxCell id="gHO-nf5wOFHp8qM-bktQ-6" value="single-spa/registerApplication&lt;br&gt;注册应用至single-spa" style="rounded=0;whiteSpace=wrap;html=1;" parent="1" vertex="1">
          <mxGeometry x="365" y="80" width="120" height="60" as="geometry" />
        </mxCell>
        <mxCell id="gHO-nf5wOFHp8qM-bktQ-8" value="startSingleSpa&lt;br&gt;启动single-spa应用" style="rounded=0;whiteSpace=wrap;html=1;" parent="1" vertex="1">
          <mxGeometry x="555" y="210" width="120" height="60" as="geometry" />
        </mxCell>
        <mxCell id="gHO-nf5wOFHp8qM-bktQ-10" value="frameworkStartedDefer.resolve()&lt;br&gt;启动应用，开始初始化各个微应用" style="rounded=0;whiteSpace=wrap;html=1;" parent="1" vertex="1">
          <mxGeometry x="100" y="340" width="230" height="60" as="geometry" />
        </mxCell>
        <mxCell id="pf8wN_jui3YV7THaJHcF-5" value="" style="edgeStyle=orthogonalEdgeStyle;rounded=0;orthogonalLoop=1;jettySize=auto;html=1;" edge="1" parent="1" source="pf8wN_jui3YV7THaJHcF-2" target="pf8wN_jui3YV7THaJHcF-4">
          <mxGeometry relative="1" as="geometry" />
        </mxCell>
        <mxCell id="pf8wN_jui3YV7THaJHcF-7" value="" style="edgeStyle=orthogonalEdgeStyle;rounded=0;orthogonalLoop=1;jettySize=auto;html=1;" edge="1" parent="1" source="pf8wN_jui3YV7THaJHcF-2" target="pf8wN_jui3YV7THaJHcF-6">
          <mxGeometry relative="1" as="geometry" />
        </mxCell>
        <mxCell id="pf8wN_jui3YV7THaJHcF-2" value="loadApp" style="rounded=0;whiteSpace=wrap;html=1;" vertex="1" parent="1">
          <mxGeometry x="730" y="80" width="120" height="60" as="geometry" />
        </mxCell>
        <mxCell id="pf8wN_jui3YV7THaJHcF-4" value="加载应用" style="rounded=0;whiteSpace=wrap;html=1;" vertex="1" parent="1">
          <mxGeometry x="930" y="80" width="120" height="60" as="geometry" />
        </mxCell>
        <mxCell id="pf8wN_jui3YV7THaJHcF-11" value="" style="edgeStyle=orthogonalEdgeStyle;rounded=0;orthogonalLoop=1;jettySize=auto;html=1;" edge="1" parent="1" source="pf8wN_jui3YV7THaJHcF-6" target="pf8wN_jui3YV7THaJHcF-10">
          <mxGeometry relative="1" as="geometry" />
        </mxCell>
        <mxCell id="pf8wN_jui3YV7THaJHcF-6" value="import-html-entry:importEntry&lt;br&gt;加载子应用资源" style="rounded=0;whiteSpace=wrap;html=1;" vertex="1" parent="1">
          <mxGeometry x="730" y="220" width="120" height="60" as="geometry" />
        </mxCell>
        <mxCell id="pf8wN_jui3YV7THaJHcF-13" value="" style="edgeStyle=orthogonalEdgeStyle;rounded=0;orthogonalLoop=1;jettySize=auto;html=1;" edge="1" parent="1" source="pf8wN_jui3YV7THaJHcF-10" target="pf8wN_jui3YV7THaJHcF-12">
          <mxGeometry relative="1" as="geometry" />
        </mxCell>
        <mxCell id="pf8wN_jui3YV7THaJHcF-16" value="否" style="edgeStyle=orthogonalEdgeStyle;rounded=0;orthogonalLoop=1;jettySize=auto;html=1;" edge="1" parent="1" source="pf8wN_jui3YV7THaJHcF-10" target="pf8wN_jui3YV7THaJHcF-15">
          <mxGeometry relative="1" as="geometry">
            <Array as="points">
              <mxPoint x="790" y="440" />
              <mxPoint x="790" y="440" />
            </Array>
          </mxGeometry>
        </mxCell>
        <mxCell id="pf8wN_jui3YV7THaJHcF-10" value="是否单例" style="rhombus;whiteSpace=wrap;html=1;rounded=0;" vertex="1" parent="1">
          <mxGeometry x="750" y="330" width="80" height="80" as="geometry" />
        </mxCell>
        <mxCell id="pf8wN_jui3YV7THaJHcF-17" style="edgeStyle=orthogonalEdgeStyle;rounded=0;orthogonalLoop=1;jettySize=auto;html=1;exitX=0.5;exitY=1;exitDx=0;exitDy=0;" edge="1" parent="1" source="pf8wN_jui3YV7THaJHcF-12" target="pf8wN_jui3YV7THaJHcF-15">
          <mxGeometry relative="1" as="geometry" />
        </mxCell>
        <mxCell id="pf8wN_jui3YV7THaJHcF-12" value="等待之前的应用卸载完成&lt;br&gt;未有卸载应用时跳过" style="whiteSpace=wrap;html=1;rounded=0;" vertex="1" parent="1">
          <mxGeometry x="890" y="340" width="120" height="60" as="geometry" />
        </mxCell>
        <mxCell id="pf8wN_jui3YV7THaJHcF-14" value="是" style="text;html=1;align=center;verticalAlign=middle;resizable=0;points=[];autosize=1;strokeColor=none;" vertex="1" parent="1">
          <mxGeometry x="835" y="360" width="30" height="20" as="geometry" />
        </mxCell>
        <mxCell id="pf8wN_jui3YV7THaJHcF-19" value="" style="edgeStyle=orthogonalEdgeStyle;rounded=0;orthogonalLoop=1;jettySize=auto;html=1;" edge="1" parent="1" source="pf8wN_jui3YV7THaJHcF-15" target="pf8wN_jui3YV7THaJHcF-18">
          <mxGeometry relative="1" as="geometry" />
        </mxCell>
        <mxCell id="pf8wN_jui3YV7THaJHcF-15" value="getDefaultTplWrapper&lt;br&gt;将html模版包裹进特殊容器内" style="whiteSpace=wrap;html=1;rounded=0;" vertex="1" parent="1">
          <mxGeometry x="730" y="500" width="120" height="60" as="geometry" />
        </mxCell>
        <mxCell id="pf8wN_jui3YV7THaJHcF-21" value="" style="edgeStyle=orthogonalEdgeStyle;rounded=0;orthogonalLoop=1;jettySize=auto;html=1;" edge="1" parent="1" source="pf8wN_jui3YV7THaJHcF-18" target="pf8wN_jui3YV7THaJHcF-20">
          <mxGeometry relative="1" as="geometry" />
        </mxCell>
        <mxCell id="pf8wN_jui3YV7THaJHcF-18" value="createElement&lt;br&gt;创建微应用容器节点（会根据css策略生成不同css节点）" style="whiteSpace=wrap;html=1;rounded=0;" vertex="1" parent="1">
          <mxGeometry x="730" y="640" width="120" height="60" as="geometry" />
        </mxCell>
        <mxCell id="pf8wN_jui3YV7THaJHcF-23" value="" style="edgeStyle=orthogonalEdgeStyle;rounded=0;orthogonalLoop=1;jettySize=auto;html=1;" edge="1" parent="1" source="pf8wN_jui3YV7THaJHcF-20" target="pf8wN_jui3YV7THaJHcF-22">
          <mxGeometry relative="1" as="geometry" />
        </mxCell>
        <mxCell id="pf8wN_jui3YV7THaJHcF-20" value="getRender&lt;br&gt;生成render方法，主要是清理容器节点并挂载实际的挂载节点&lt;br&gt;兼容1.x的app.render方法" style="whiteSpace=wrap;html=1;rounded=0;" vertex="1" parent="1">
          <mxGeometry x="730" y="750" width="120" height="100" as="geometry" />
        </mxCell>
        <mxCell id="pf8wN_jui3YV7THaJHcF-25" value="" style="edgeStyle=orthogonalEdgeStyle;rounded=0;orthogonalLoop=1;jettySize=auto;html=1;" edge="1" parent="1" source="pf8wN_jui3YV7THaJHcF-22" target="pf8wN_jui3YV7THaJHcF-24">
          <mxGeometry relative="1" as="geometry" />
        </mxCell>
        <mxCell id="pf8wN_jui3YV7THaJHcF-22" value="getAppWrapperGetter&lt;br&gt;生成获取初始化挂载节点方法" style="whiteSpace=wrap;html=1;rounded=0;" vertex="1" parent="1">
          <mxGeometry x="730" y="900" width="120" height="60" as="geometry" />
        </mxCell>
        <mxCell id="pf8wN_jui3YV7THaJHcF-27" value="" style="edgeStyle=orthogonalEdgeStyle;rounded=0;orthogonalLoop=1;jettySize=auto;html=1;" edge="1" parent="1" source="pf8wN_jui3YV7THaJHcF-24" target="pf8wN_jui3YV7THaJHcF-26">
          <mxGeometry relative="1" as="geometry" />
        </mxCell>
        <mxCell id="pf8wN_jui3YV7THaJHcF-31" value="f否" style="edgeStyle=orthogonalEdgeStyle;rounded=0;orthogonalLoop=1;jettySize=auto;html=1;" edge="1" parent="1" source="pf8wN_jui3YV7THaJHcF-24" target="pf8wN_jui3YV7THaJHcF-30">
          <mxGeometry relative="1" as="geometry" />
        </mxCell>
        <mxCell id="pf8wN_jui3YV7THaJHcF-24" value="使用沙箱" style="rhombus;whiteSpace=wrap;html=1;rounded=0;" vertex="1" parent="1">
          <mxGeometry x="750" y="1030" width="80" height="80" as="geometry" />
        </mxCell>
        <mxCell id="pf8wN_jui3YV7THaJHcF-32" style="edgeStyle=orthogonalEdgeStyle;rounded=0;orthogonalLoop=1;jettySize=auto;html=1;endArrow=none;endFill=0;" edge="1" parent="1" source="pf8wN_jui3YV7THaJHcF-26">
          <mxGeometry relative="1" as="geometry">
            <mxPoint x="980" y="1230" as="targetPoint" />
          </mxGeometry>
        </mxCell>
        <mxCell id="pf8wN_jui3YV7THaJHcF-26" value="createSandboxContainer&lt;br&gt;创建沙箱环境" style="whiteSpace=wrap;html=1;rounded=0;" vertex="1" parent="1">
          <mxGeometry x="890" y="1040" width="180" height="60" as="geometry" />
        </mxCell>
        <mxCell id="pf8wN_jui3YV7THaJHcF-29" value="是" style="text;html=1;strokeColor=none;fillColor=none;align=center;verticalAlign=middle;whiteSpace=wrap;rounded=0;" vertex="1" parent="1">
          <mxGeometry x="840" y="1060" width="40" height="20" as="geometry" />
        </mxCell>
        <mxCell id="pf8wN_jui3YV7THaJHcF-35" value="" style="edgeStyle=orthogonalEdgeStyle;rounded=0;orthogonalLoop=1;jettySize=auto;html=1;endArrow=none;endFill=0;" edge="1" parent="1" source="pf8wN_jui3YV7THaJHcF-30" target="pf8wN_jui3YV7THaJHcF-34">
          <mxGeometry relative="1" as="geometry" />
        </mxCell>
        <mxCell id="pf8wN_jui3YV7THaJHcF-30" value="获取公共生命周期方法&lt;br&gt;beforeUnmount/Load/Mount&lt;br&gt;afterUnmount/Mount" style="whiteSpace=wrap;html=1;rounded=0;" vertex="1" parent="1">
          <mxGeometry x="685" y="1200" width="210" height="60" as="geometry" />
        </mxCell>
        <mxCell id="pf8wN_jui3YV7THaJHcF-33" value="" style="endArrow=classic;html=1;entryX=1;entryY=0.5;entryDx=0;entryDy=0;" edge="1" parent="1" target="pf8wN_jui3YV7THaJHcF-30">
          <mxGeometry width="50" height="50" relative="1" as="geometry">
            <mxPoint x="980" y="1230" as="sourcePoint" />
            <mxPoint x="980" y="1020" as="targetPoint" />
          </mxGeometry>
        </mxCell>
        <mxCell id="pf8wN_jui3YV7THaJHcF-37" value="" style="edgeStyle=orthogonalEdgeStyle;rounded=0;orthogonalLoop=1;jettySize=auto;html=1;endArrow=classic;endFill=1;" edge="1" parent="1" source="pf8wN_jui3YV7THaJHcF-34" target="pf8wN_jui3YV7THaJHcF-36">
          <mxGeometry relative="1" as="geometry" />
        </mxCell>
        <mxCell id="pf8wN_jui3YV7THaJHcF-34" value="beforeLoad周期执行" style="whiteSpace=wrap;html=1;rounded=0;" vertex="1" parent="1">
          <mxGeometry x="730" y="1340" width="120" height="60" as="geometry" />
        </mxCell>
        <mxCell id="pf8wN_jui3YV7THaJHcF-39" value="" style="edgeStyle=orthogonalEdgeStyle;rounded=0;orthogonalLoop=1;jettySize=auto;html=1;endArrow=classic;endFill=1;" edge="1" parent="1" source="pf8wN_jui3YV7THaJHcF-36" target="pf8wN_jui3YV7THaJHcF-38">
          <mxGeometry relative="1" as="geometry" />
        </mxCell>
        <mxCell id="pf8wN_jui3YV7THaJHcF-36" value="getLifecyclesFromExports&lt;br&gt;获取应用导出钩子" style="whiteSpace=wrap;html=1;rounded=0;" vertex="1" parent="1">
          <mxGeometry x="705" y="1440" width="170" height="60" as="geometry" />
        </mxCell>
        <mxCell id="pf8wN_jui3YV7THaJHcF-41" value="" style="edgeStyle=orthogonalEdgeStyle;rounded=0;orthogonalLoop=1;jettySize=auto;html=1;endArrow=classic;endFill=1;" edge="1" parent="1" source="pf8wN_jui3YV7THaJHcF-38" target="pf8wN_jui3YV7THaJHcF-40">
          <mxGeometry relative="1" as="geometry" />
        </mxCell>
        <mxCell id="pf8wN_jui3YV7THaJHcF-38" value="getMicroAppStateActions&lt;br&gt;获取微应用通信实例" style="whiteSpace=wrap;html=1;rounded=0;" vertex="1" parent="1">
          <mxGeometry x="705" y="1540" width="170" height="60" as="geometry" />
        </mxCell>
        <mxCell id="pf8wN_jui3YV7THaJHcF-43" value="" style="edgeStyle=orthogonalEdgeStyle;rounded=0;orthogonalLoop=1;jettySize=auto;html=1;endArrow=classic;endFill=1;" edge="1" parent="1" source="pf8wN_jui3YV7THaJHcF-40" target="pf8wN_jui3YV7THaJHcF-42">
          <mxGeometry relative="1" as="geometry" />
        </mxCell>
        <mxCell id="pf8wN_jui3YV7THaJHcF-45" style="edgeStyle=orthogonalEdgeStyle;rounded=0;orthogonalLoop=1;jettySize=auto;html=1;endArrow=classic;endFill=1;" edge="1" parent="1" source="pf8wN_jui3YV7THaJHcF-40" target="pf8wN_jui3YV7THaJHcF-44">
          <mxGeometry relative="1" as="geometry" />
        </mxCell>
        <mxCell id="pf8wN_jui3YV7THaJHcF-40" value="parcelConfigGetter&lt;br&gt;封装应用实例" style="whiteSpace=wrap;html=1;rounded=0;" vertex="1" parent="1">
          <mxGeometry x="730" y="1650" width="120" height="60" as="geometry" />
        </mxCell>
        <mxCell id="pf8wN_jui3YV7THaJHcF-47" value="" style="edgeStyle=orthogonalEdgeStyle;rounded=0;orthogonalLoop=1;jettySize=auto;html=1;endArrow=classic;endFill=1;" edge="1" parent="1" source="pf8wN_jui3YV7THaJHcF-42" target="pf8wN_jui3YV7THaJHcF-46">
          <mxGeometry relative="1" as="geometry" />
        </mxCell>
        <mxCell id="pf8wN_jui3YV7THaJHcF-42" value="mount" style="whiteSpace=wrap;html=1;rounded=0;" vertex="1" parent="1">
          <mxGeometry x="980" y="1580" width="120" height="60" as="geometry" />
        </mxCell>
        <mxCell id="pf8wN_jui3YV7THaJHcF-49" value="" style="edgeStyle=orthogonalEdgeStyle;rounded=0;orthogonalLoop=1;jettySize=auto;html=1;endArrow=classic;endFill=1;" edge="1" parent="1" source="pf8wN_jui3YV7THaJHcF-44" target="pf8wN_jui3YV7THaJHcF-48">
          <mxGeometry relative="1" as="geometry" />
        </mxCell>
        <mxCell id="pf8wN_jui3YV7THaJHcF-44" value="unmount" style="rounded=0;whiteSpace=wrap;html=1;" vertex="1" parent="1">
          <mxGeometry x="980" y="1720" width="120" height="60" as="geometry" />
        </mxCell>
        <mxCell id="pf8wN_jui3YV7THaJHcF-51" value="" style="edgeStyle=orthogonalEdgeStyle;rounded=0;orthogonalLoop=1;jettySize=auto;html=1;endArrow=classic;endFill=1;" edge="1" parent="1" source="pf8wN_jui3YV7THaJHcF-46" target="pf8wN_jui3YV7THaJHcF-50">
          <mxGeometry relative="1" as="geometry" />
        </mxCell>
        <mxCell id="pf8wN_jui3YV7THaJHcF-46" value="初始化挂载容器" style="whiteSpace=wrap;html=1;rounded=0;" vertex="1" parent="1">
          <mxGeometry x="1180" y="1580" width="120" height="60" as="geometry" />
        </mxCell>
        <mxCell id="pf8wN_jui3YV7THaJHcF-63" value="" style="edgeStyle=orthogonalEdgeStyle;rounded=0;orthogonalLoop=1;jettySize=auto;html=1;endArrow=classic;endFill=1;" edge="1" parent="1" source="pf8wN_jui3YV7THaJHcF-48" target="pf8wN_jui3YV7THaJHcF-62">
          <mxGeometry relative="1" as="geometry" />
        </mxCell>
        <mxCell id="pf8wN_jui3YV7THaJHcF-48" value="执行beforeUnmount" style="whiteSpace=wrap;html=1;rounded=0;" vertex="1" parent="1">
          <mxGeometry x="1180" y="1720" width="120" height="60" as="geometry" />
        </mxCell>
        <mxCell id="pf8wN_jui3YV7THaJHcF-53" value="" style="edgeStyle=orthogonalEdgeStyle;rounded=0;orthogonalLoop=1;jettySize=auto;html=1;endArrow=classic;endFill=1;" edge="1" parent="1" source="pf8wN_jui3YV7THaJHcF-50" target="pf8wN_jui3YV7THaJHcF-52">
          <mxGeometry relative="1" as="geometry" />
        </mxCell>
        <mxCell id="pf8wN_jui3YV7THaJHcF-50" value="初始化沙箱环境" style="whiteSpace=wrap;html=1;rounded=0;" vertex="1" parent="1">
          <mxGeometry x="1380" y="1580" width="120" height="60" as="geometry" />
        </mxCell>
        <mxCell id="pf8wN_jui3YV7THaJHcF-55" value="" style="edgeStyle=orthogonalEdgeStyle;rounded=0;orthogonalLoop=1;jettySize=auto;html=1;endArrow=classic;endFill=1;" edge="1" parent="1" source="pf8wN_jui3YV7THaJHcF-52" target="pf8wN_jui3YV7THaJHcF-54">
          <mxGeometry relative="1" as="geometry" />
        </mxCell>
        <mxCell id="pf8wN_jui3YV7THaJHcF-52" value="执行beforeMount" style="whiteSpace=wrap;html=1;rounded=0;" vertex="1" parent="1">
          <mxGeometry x="1580" y="1580" width="120" height="60" as="geometry" />
        </mxCell>
        <mxCell id="pf8wN_jui3YV7THaJHcF-57" value="" style="edgeStyle=orthogonalEdgeStyle;rounded=0;orthogonalLoop=1;jettySize=auto;html=1;endArrow=classic;endFill=1;" edge="1" parent="1" source="pf8wN_jui3YV7THaJHcF-54" target="pf8wN_jui3YV7THaJHcF-56">
          <mxGeometry relative="1" as="geometry" />
        </mxCell>
        <mxCell id="pf8wN_jui3YV7THaJHcF-54" value="mount" style="whiteSpace=wrap;html=1;rounded=0;" vertex="1" parent="1">
          <mxGeometry x="1780" y="1580" width="120" height="60" as="geometry" />
        </mxCell>
        <mxCell id="pf8wN_jui3YV7THaJHcF-59" value="" style="edgeStyle=orthogonalEdgeStyle;rounded=0;orthogonalLoop=1;jettySize=auto;html=1;endArrow=classic;endFill=1;" edge="1" parent="1" source="pf8wN_jui3YV7THaJHcF-56" target="pf8wN_jui3YV7THaJHcF-58">
          <mxGeometry relative="1" as="geometry" />
        </mxCell>
        <mxCell id="pf8wN_jui3YV7THaJHcF-56" value="render&lt;br&gt;挂载元素至包裹节点" style="whiteSpace=wrap;html=1;rounded=0;" vertex="1" parent="1">
          <mxGeometry x="1980" y="1580" width="120" height="60" as="geometry" />
        </mxCell>
        <mxCell id="pf8wN_jui3YV7THaJHcF-58" value="执行afterMount" style="whiteSpace=wrap;html=1;rounded=0;" vertex="1" parent="1">
          <mxGeometry x="2180" y="1580" width="120" height="60" as="geometry" />
        </mxCell>
        <mxCell id="pf8wN_jui3YV7THaJHcF-65" value="" style="edgeStyle=orthogonalEdgeStyle;rounded=0;orthogonalLoop=1;jettySize=auto;html=1;endArrow=classic;endFill=1;" edge="1" parent="1" source="pf8wN_jui3YV7THaJHcF-62" target="pf8wN_jui3YV7THaJHcF-64">
          <mxGeometry relative="1" as="geometry" />
        </mxCell>
        <mxCell id="pf8wN_jui3YV7THaJHcF-62" value="unmount" style="whiteSpace=wrap;html=1;rounded=0;" vertex="1" parent="1">
          <mxGeometry x="1380" y="1720" width="120" height="60" as="geometry" />
        </mxCell>
        <mxCell id="pf8wN_jui3YV7THaJHcF-67" value="" style="edgeStyle=orthogonalEdgeStyle;rounded=0;orthogonalLoop=1;jettySize=auto;html=1;endArrow=classic;endFill=1;" edge="1" parent="1" source="pf8wN_jui3YV7THaJHcF-64" target="pf8wN_jui3YV7THaJHcF-66">
          <mxGeometry relative="1" as="geometry" />
        </mxCell>
        <mxCell id="pf8wN_jui3YV7THaJHcF-64" value="卸载沙箱环境" style="whiteSpace=wrap;html=1;rounded=0;" vertex="1" parent="1">
          <mxGeometry x="1580" y="1720" width="120" height="60" as="geometry" />
        </mxCell>
        <mxCell id="pf8wN_jui3YV7THaJHcF-69" value="" style="edgeStyle=orthogonalEdgeStyle;rounded=0;orthogonalLoop=1;jettySize=auto;html=1;endArrow=classic;endFill=1;" edge="1" parent="1" source="pf8wN_jui3YV7THaJHcF-66" target="pf8wN_jui3YV7THaJHcF-68">
          <mxGeometry relative="1" as="geometry" />
        </mxCell>
        <mxCell id="pf8wN_jui3YV7THaJHcF-66" value="执行afterUnmount" style="whiteSpace=wrap;html=1;rounded=0;" vertex="1" parent="1">
          <mxGeometry x="1780" y="1720" width="120" height="60" as="geometry" />
        </mxCell>
        <mxCell id="pf8wN_jui3YV7THaJHcF-71" value="" style="edgeStyle=orthogonalEdgeStyle;rounded=0;orthogonalLoop=1;jettySize=auto;html=1;endArrow=classic;endFill=1;" edge="1" parent="1" source="pf8wN_jui3YV7THaJHcF-68" target="pf8wN_jui3YV7THaJHcF-70">
          <mxGeometry relative="1" as="geometry" />
        </mxCell>
        <mxCell id="pf8wN_jui3YV7THaJHcF-68" value="清理挂载容器节点" style="whiteSpace=wrap;html=1;rounded=0;" vertex="1" parent="1">
          <mxGeometry x="1980" y="1720" width="120" height="60" as="geometry" />
        </mxCell>
        <mxCell id="pf8wN_jui3YV7THaJHcF-73" value="" style="edgeStyle=orthogonalEdgeStyle;rounded=0;orthogonalLoop=1;jettySize=auto;html=1;endArrow=classic;endFill=1;" edge="1" parent="1" source="pf8wN_jui3YV7THaJHcF-70" target="pf8wN_jui3YV7THaJHcF-72">
          <mxGeometry relative="1" as="geometry" />
        </mxCell>
        <mxCell id="pf8wN_jui3YV7THaJHcF-70" value="移除微应用通信实例" style="whiteSpace=wrap;html=1;rounded=0;" vertex="1" parent="1">
          <mxGeometry x="2180" y="1720" width="120" height="60" as="geometry" />
        </mxCell>
        <mxCell id="pf8wN_jui3YV7THaJHcF-75" value="" style="edgeStyle=orthogonalEdgeStyle;rounded=0;orthogonalLoop=1;jettySize=auto;html=1;endArrow=classic;endFill=1;" edge="1" parent="1" source="pf8wN_jui3YV7THaJHcF-72" target="pf8wN_jui3YV7THaJHcF-74">
          <mxGeometry relative="1" as="geometry" />
        </mxCell>
        <mxCell id="pf8wN_jui3YV7THaJHcF-72" value="清空包裹节点" style="whiteSpace=wrap;html=1;rounded=0;" vertex="1" parent="1">
          <mxGeometry x="2380" y="1720" width="120" height="60" as="geometry" />
        </mxCell>
        <mxCell id="pf8wN_jui3YV7THaJHcF-74" value="完成挂载事件" style="whiteSpace=wrap;html=1;rounded=0;" vertex="1" parent="1">
          <mxGeometry x="2580" y="1720" width="120" height="60" as="geometry" />
        </mxCell>
      </root>
    </mxGraphModel>
  </diagram>
</mxfile>
